<svg width="70" height="70" viewBox="0 0 70 70" fill="none" xmlns="http://www.w3.org/2000/svg">
<g clip-path="url(#clip0_2270_520)">
<path d="M4.32168 53.2672H66.2074C66.4426 53.2672 66.6887 53.2068 66.9266 53.0992C67.3244 52.9179 67.6908 52.6101 67.952 52.2286C68.1734 51.9038 68.3156 51.5318 68.3156 51.1598C68.3156 51.0427 68.302 50.9238 68.2732 50.801L62.7525 27.7516C62.177 28.0971 61.302 28.4144 60.6812 28.3766C60.8166 27.7856 61.0436 27.2946 61.3826 26.8716C61.0818 26.424 60.8768 25.8934 60.777 25.2703C61.3102 25.2759 61.8037 25.4799 62.2781 25.7707L58.2996 9.1549L58.2258 8.84898C57.616 9.14923 56.6549 9.34185 56.0643 9.30597C56.1996 8.71491 56.4279 8.22393 56.767 7.80094C56.4662 7.35339 56.2598 6.82276 56.16 6.19771C56.6918 6.20338 57.1826 6.40543 57.657 6.69624C57.0787 4.72667 56.5264 3.60498 55.7758 3.00259C54.7326 2.16415 53.1084 2.14149 50.3863 2.14149H21.0314L19.6451 2.1245C15.7309 2.06596 13.948 2.03952 12.4482 8.29758L2.24082 50.8614C2.22305 50.9559 2.21484 51.0559 2.21484 51.156C2.21484 51.528 2.35566 51.9 2.57852 52.2248C2.83965 52.6082 3.20742 52.9179 3.60391 53.0992C3.8418 53.2087 4.08789 53.2672 4.32168 53.2672ZM32.2246 48.7635C32.9014 48.805 33.4934 48.6011 34.058 48.2234C34.7525 48.6143 35.4881 48.703 36.1785 48.6672C35.8996 47.9496 35.5605 47.5096 35.242 47.1187C35.6207 46.8298 35.9119 46.3841 36.117 45.7742C35.4047 45.8252 34.7225 45.9838 34.0908 46.3294C33.5316 45.9498 32.9561 45.6628 32.3217 45.6571C32.4201 46.2803 32.6266 46.8109 32.9273 47.2584C32.5883 47.6814 32.3613 48.1724 32.2246 48.7635ZM34.0484 38.9326C34.7252 38.9742 35.3172 38.7702 35.8818 38.3925C36.575 38.7834 37.3119 38.8722 38.0023 38.8363C37.7234 38.1187 37.3844 37.6768 37.0658 37.2878C37.4432 36.9989 37.7357 36.5533 37.9395 35.9433C37.2271 35.9943 36.5449 36.1529 35.9133 36.4985C35.3555 36.1189 34.7785 35.8319 34.1441 35.8244C34.2439 36.4494 34.449 36.98 34.7512 37.4276C34.4107 37.8506 34.1838 38.3415 34.0484 38.9326ZM37.0371 29.1018C37.7139 29.1433 38.3059 28.9394 38.8705 28.5617C39.5637 28.9526 40.3006 29.0413 40.991 29.0054C40.7121 28.2879 40.373 27.846 40.0545 27.457C40.4332 27.1681 40.7244 26.7224 40.9281 26.1125C40.2158 26.1634 39.535 26.3221 38.9033 26.6676C38.3441 26.2881 37.7686 26.001 37.1328 25.9935C37.2326 26.6185 37.4391 27.1492 37.7398 27.5967C37.4008 28.0197 37.1738 28.5107 37.0371 29.1018ZM38.8596 19.2709C39.5377 19.3124 40.1297 19.1085 40.6943 18.7289C41.3875 19.1217 42.1244 19.2105 42.8148 19.1746C42.5359 18.457 42.1969 18.0151 41.8783 17.6261C42.2557 17.3372 42.5482 16.8916 42.752 16.2816C42.0397 16.3307 41.3574 16.4912 40.7258 16.8368C40.168 16.4572 39.591 16.1702 38.9566 16.1626C39.0564 16.7877 39.2629 17.3183 39.5623 17.7659C39.2232 18.1889 38.9963 18.6798 38.8596 19.2709ZM39.5172 9.44004C40.1939 9.48159 40.7859 9.27764 41.3506 8.89808C42.0438 9.29086 42.7807 9.37773 43.4711 9.34373C43.1922 8.62615 42.8531 8.18428 42.5346 7.79527C42.9119 7.50635 43.2045 7.0607 43.4082 6.45075C42.6959 6.50174 42.0137 6.66036 41.3834 7.00593C40.8242 6.62637 40.2473 6.33934 39.6129 6.33178C39.7127 6.95683 39.9191 7.48747 40.2199 7.93501C39.8809 8.35801 39.6525 8.84898 39.5172 9.44004ZM58.9271 48.6294C59.6039 48.6709 60.1959 48.467 60.7605 48.0893C61.4537 48.4802 62.1906 48.569 62.8811 48.5331C62.6021 47.8155 62.2631 47.3755 61.9445 46.9846C62.3219 46.6957 62.6145 46.25 62.8182 45.6401C62.1059 45.6911 61.4236 45.8497 60.7934 46.1953C60.2342 45.8157 59.6572 45.5287 59.0229 45.523C59.1227 46.1462 59.3291 46.6768 59.6299 47.1244C59.2908 47.5474 59.0639 48.0383 58.9271 48.6294ZM41.3711 48.6294C42.0492 48.6709 42.6398 48.467 43.2059 48.0893C43.899 48.4802 44.6359 48.569 45.3264 48.5331C45.0461 47.8155 44.707 47.3755 44.3898 46.9846C44.7672 46.6957 45.0598 46.25 45.2635 45.6401C44.5512 45.6911 43.8689 45.8497 43.2373 46.1953C42.6781 45.8157 42.1025 45.5287 41.4682 45.523C41.568 46.1462 41.773 46.6768 42.0738 47.1244C41.7348 47.5474 41.5078 48.0383 41.3711 48.6294ZM43.1949 38.7985C43.8717 38.8401 44.4637 38.6361 45.0283 38.2585C45.7229 38.6494 46.4584 38.7381 47.1488 38.7022C46.8699 37.9846 46.5309 37.5428 46.2123 37.1538C46.5896 36.8648 46.8822 36.4192 47.0859 35.8092C46.3736 35.8602 45.6914 36.0189 45.0598 36.3644C44.502 35.9849 43.925 35.6978 43.2906 35.6922C43.3904 36.3153 43.5969 36.846 43.8977 37.2935C43.5586 37.7165 43.3316 38.2075 43.1949 38.7985ZM45.0174 28.9677C45.6955 29.0092 46.2861 28.8053 46.8521 28.4257C47.5453 28.8185 48.2822 28.9073 48.9727 28.8714C48.6924 28.1538 48.3533 27.7119 48.0361 27.3229C48.4135 27.034 48.7061 26.5883 48.9098 25.9784C48.1975 26.0275 47.5152 26.188 46.8836 26.5336C46.3258 26.154 45.7488 25.867 45.1145 25.8594C45.2143 26.4845 45.4193 27.0151 45.7201 27.4626C45.3811 27.8856 45.1541 28.3766 45.0174 28.9677ZM46.8398 19.1368C47.518 19.1784 48.11 18.9744 48.6746 18.5967C49.3678 18.9876 50.1047 19.0745 50.7951 19.0405C50.5162 18.3229 50.1771 17.8811 49.8586 17.4921C50.2359 17.2031 50.5285 16.7575 50.7322 16.1475C50.0199 16.1985 49.3377 16.3571 48.7061 16.7027C48.1482 16.3232 47.5713 16.0361 46.9369 16.0286C47.0367 16.6536 47.2432 17.1842 47.5426 17.6318C47.2049 18.0548 46.9766 18.5458 46.8398 19.1368ZM48.0799 9.30597C48.758 9.34751 49.35 9.14357 49.9146 8.76589C50.6078 9.15679 51.3447 9.24554 52.0352 9.20966C51.7563 8.49208 51.4172 8.0502 51.0986 7.6612C51.476 7.37228 51.7686 6.92662 51.9723 6.31668C51.26 6.36766 50.5777 6.52629 49.9461 6.87186C49.3883 6.4923 48.8113 6.20526 48.177 6.19771C48.2768 6.82276 48.4832 7.35339 48.7826 7.80094C48.4436 8.22393 48.2166 8.71491 48.0799 9.30597ZM58.0795 38.6645C58.7562 38.706 59.3482 38.5021 59.9129 38.1244C60.6074 38.5153 61.343 38.604 62.0348 38.5682C61.7545 37.8506 61.4154 37.4087 61.0969 37.0197C61.4756 36.7308 61.7668 36.2851 61.9719 35.6752C61.2582 35.7262 60.5773 35.8848 59.9457 36.2322C59.3865 35.8508 58.8109 35.5638 58.1766 35.5562C58.275 36.1813 58.4814 36.7119 58.7822 37.1594C58.4432 37.5824 58.2162 38.0734 58.0795 38.6645ZM50.1553 48.4953C50.832 48.5369 51.424 48.3348 51.9887 47.9552C52.6818 48.3461 53.4187 48.4349 54.1092 48.399C53.8303 47.6814 53.4912 47.2414 53.1727 46.8505C53.55 46.5616 53.8426 46.116 54.0463 45.506C53.334 45.557 52.6531 45.7156 52.0201 46.0631C51.4623 45.6816 50.8853 45.3946 50.251 45.3889C50.3508 46.0121 50.5572 46.5427 50.858 46.9903C50.5189 47.4133 50.2906 47.9043 50.1553 48.4953ZM50.8115 38.6645C51.4896 38.706 52.0816 38.5021 52.6449 38.1244C53.3395 38.5153 54.0764 38.604 54.7668 38.5682C54.4879 37.8506 54.1475 37.4087 53.8303 37.0197C54.2076 36.7308 54.5002 36.2851 54.7039 35.6752C53.9916 35.7262 53.3094 35.8848 52.6777 36.2322C52.1199 35.8508 51.543 35.5638 50.9086 35.5562C51.0084 36.1813 51.2135 36.7119 51.5143 37.1594C51.1752 37.5824 50.9482 38.0734 50.8115 38.6645ZM53.2178 28.8336C53.8959 28.8751 54.4879 28.6712 55.0525 28.2935C55.7457 28.6844 56.4826 28.7732 57.173 28.7373C56.8941 28.0197 56.5537 27.5797 56.2365 27.1888C56.6139 26.8999 56.9051 26.4543 57.1102 25.8443C56.3979 25.8953 55.7156 26.0539 55.084 26.3995C54.5248 26.0199 53.9492 25.7329 53.3148 25.7253C53.4146 26.3504 53.6197 26.881 53.9205 27.3286C53.5814 27.7516 53.3545 28.2425 53.2178 28.8336ZM54.4578 19.0027C55.1346 19.0443 55.7279 18.8403 56.2926 18.4627C56.9857 18.8536 57.7213 18.9423 58.4131 18.9064C58.1328 18.1889 57.7937 17.747 57.4766 17.358C57.8539 17.0691 58.1451 16.6234 58.3502 16.0135C57.6365 16.0644 56.9557 16.2231 56.324 16.5686C55.7648 16.1891 55.1893 15.902 54.5549 15.8964C54.6533 16.5195 54.8598 17.0502 55.1605 17.4977C54.8215 17.9207 54.5945 18.4117 54.4578 19.0027ZM35.8723 6.07497C35.1955 6.03342 34.6035 6.23737 34.0389 6.61504C33.3457 6.22415 32.6088 6.13539 31.9184 6.17127C32.1973 6.88885 32.5363 7.33073 32.8549 7.71974C32.4762 8.00866 32.185 8.45431 31.9812 9.06426C32.6936 9.01516 33.3744 8.85465 34.0061 8.50908C34.5652 8.88864 35.1422 9.17567 35.7766 9.18322C35.6768 8.55817 35.4703 8.02754 35.1695 7.58C35.5086 7.157 35.7369 6.66603 35.8723 6.07497ZM34.6322 15.9058C33.9555 15.8643 33.3635 16.0682 32.7988 16.4478C32.1057 16.055 31.3687 15.9662 30.6783 16.0021C30.9572 16.7197 31.2963 17.1616 31.6148 17.5506C31.2361 17.8395 30.9449 18.2852 30.7412 18.897C31.4535 18.846 32.1344 18.6855 32.7674 18.3399C33.3252 18.7195 33.9021 19.0065 34.5365 19.0141C34.4367 18.3909 34.2303 17.8584 33.9295 17.4109C34.2686 16.9879 34.4969 16.4969 34.6322 15.9058ZM32.8098 25.7367C32.1316 25.6951 31.5396 25.8991 30.975 26.2786C30.2818 25.8859 29.5449 25.799 28.8545 25.833C29.1334 26.5506 29.4738 26.9924 29.791 27.3814C29.4137 27.6704 29.1225 28.116 28.9174 28.7279C29.6297 28.6769 30.3119 28.5164 30.9436 28.1708C31.5027 28.5503 32.0783 28.8374 32.7127 28.8449C32.6129 28.2199 32.4078 27.6893 32.107 27.2417C32.4461 26.8187 32.673 26.3296 32.8098 25.7367ZM30.4035 35.5675C29.7268 35.526 29.1334 35.7299 28.5701 36.1095C27.8756 35.7167 27.14 35.6298 26.4482 35.6638C26.7285 36.3814 27.0676 36.8233 27.3848 37.2123C27.0074 37.5012 26.7162 37.9469 26.5111 38.5568C27.2234 38.5077 27.9057 38.3472 28.5373 38.0016C29.0965 38.3812 29.6721 38.6682 30.3064 38.6758C30.2066 38.0507 30.0016 37.5201 29.7008 37.0726C30.0398 36.6496 30.2668 36.1586 30.4035 35.5675ZM28.5797 45.3984C27.9029 45.3568 27.3109 45.5608 26.7463 45.9404C26.0531 45.5476 25.3162 45.4607 24.6258 45.4947C24.9047 46.2123 25.2438 46.6542 25.5623 47.0432C25.185 47.3321 24.8924 47.7796 24.6887 48.3877C25.401 48.3386 26.0832 48.1781 26.7148 47.8325C27.2727 48.2121 27.8496 48.4991 28.484 48.5066C28.3842 47.8816 28.1777 47.351 27.877 46.9034C28.2174 46.4804 28.4443 45.9913 28.5797 45.3984ZM27.3082 6.20904C26.6314 6.1675 26.0395 6.37144 25.4748 6.74911C24.7816 6.35822 24.0447 6.26947 23.3543 6.30535C23.6332 7.02293 23.9723 7.46481 24.2908 7.85381C23.9135 8.14273 23.6209 8.58839 23.4172 9.19833C24.1295 9.14734 24.8117 8.98872 25.4434 8.64315C26.0012 9.02271 26.5781 9.30974 27.2125 9.3173C27.1127 8.69225 26.9063 8.16161 26.6055 7.71407C26.9459 7.29108 27.1729 6.8001 27.3082 6.20904ZM26.0695 16.0399C25.3914 15.9984 24.7994 16.2023 24.2348 16.58C23.5416 16.1891 22.8047 16.1003 22.1143 16.1362C22.3932 16.8538 22.7322 17.2957 23.0508 17.6847C22.6734 17.9736 22.3809 18.4192 22.1771 19.0292C22.8895 18.9782 23.5717 18.8196 24.2033 18.474C24.7611 18.8536 25.3381 19.1406 25.9725 19.1482C25.8727 18.5231 25.6662 17.9925 25.3668 17.5449C25.7059 17.1219 25.9328 16.631 26.0695 16.0399ZM24.2457 25.8708C23.5689 25.8292 22.977 26.0332 22.4123 26.4108C21.7178 26.0199 20.9822 25.9312 20.2918 25.9671C20.5707 26.6846 20.9098 27.1265 21.2283 27.5155C20.8496 27.8044 20.5584 28.2501 20.3547 28.86C21.067 28.8109 21.7479 28.6504 22.3795 28.3049C22.9387 28.6844 23.5156 28.9715 24.1486 28.979C24.0488 28.354 23.8437 27.8233 23.543 27.3758C23.882 26.9528 24.109 26.4618 24.2457 25.8708ZM22.4232 35.7016C21.7451 35.6601 21.1545 35.864 20.5885 36.2436C19.8953 35.8508 19.1584 35.762 18.468 35.7979C18.7482 36.5155 19.0873 36.9574 19.4045 37.3464C19.0271 37.6353 18.7346 38.081 18.5309 38.6909C19.2432 38.6418 19.9254 38.4813 20.557 38.1357C21.1148 38.5153 21.6918 38.8023 22.3262 38.8099C22.2264 38.1848 22.0213 37.6542 21.7205 37.2066C22.0596 36.7836 22.2865 36.2927 22.4232 35.7016ZM20.5994 45.5325C19.9227 45.4909 19.3307 45.6949 18.766 46.0744C18.0729 45.6816 17.3359 45.5948 16.6455 45.6288C16.9244 46.3464 17.2635 46.7882 17.582 47.1772C17.2047 47.4662 16.9121 47.9118 16.7084 48.5236C17.4207 48.4727 18.1029 48.3121 18.7332 47.9666C19.2924 48.3461 19.8693 48.6332 20.5037 48.6407C20.4039 48.0176 20.1975 47.485 19.8967 47.0375C20.2357 46.6145 20.4627 46.1254 20.5994 45.5325ZM19.1078 6.34311C18.4311 6.30157 17.8391 6.50551 17.2744 6.88319C16.5812 6.4923 15.8443 6.40354 15.1539 6.43942C15.4328 7.157 15.7732 7.59699 16.0904 7.98788C15.7131 8.27681 15.4205 8.72246 15.2168 9.3324C15.9291 9.28142 16.6113 9.1228 17.243 8.77722C17.8008 9.15679 18.3777 9.44382 19.0121 9.44948C18.9123 8.82632 18.7059 8.29569 18.4064 7.84815C18.7455 7.42515 18.9725 6.93417 19.1078 6.34311ZM17.2854 16.174C16.6086 16.1324 16.0166 16.3364 15.452 16.714C14.7574 16.3232 14.0219 16.2344 13.3314 16.2703C13.6104 16.9879 13.9494 17.4297 14.2666 17.8187C13.8893 18.1077 13.598 18.5533 13.393 19.1633C14.1066 19.1123 14.7875 18.9537 15.4191 18.6081C15.9783 18.9876 16.5553 19.2747 17.1883 19.2803C17.0885 18.6572 16.8834 18.1265 16.5826 17.679C16.9217 17.256 17.1486 16.765 17.2854 16.174ZM15.4629 26.0048C14.7848 25.9633 14.1928 26.1672 13.6281 26.5449C12.935 26.154 12.198 26.0653 11.5076 26.1011C11.7865 26.8187 12.1256 27.2606 12.4441 27.6496C12.0668 27.9385 11.7742 28.3842 11.5705 28.9941C12.2828 28.9431 12.965 28.7845 13.5967 28.4389C14.1545 28.8185 14.7314 29.1055 15.3658 29.1131C15.266 28.488 15.0609 27.9574 14.7588 27.5099C15.0992 27.0869 15.3262 26.5959 15.4629 26.0048ZM13.6391 35.8357C12.9623 35.7941 12.3703 35.9981 11.8057 36.3758C11.1111 35.9849 10.3756 35.8961 9.68516 35.932C9.96406 36.6496 10.3031 37.0914 10.6217 37.4805C10.243 37.7694 9.95176 38.215 9.74805 38.825C10.4604 38.774 11.1412 38.6154 11.7729 38.2698C12.332 38.6494 12.9076 38.9364 13.5434 38.9439C13.4436 38.3189 13.2371 37.7883 12.9363 37.3407C13.2754 36.9177 13.5037 36.4267 13.6391 35.8357ZM11.8098 45.6722C11.1344 45.6307 10.5438 45.8327 9.98184 46.2104C9.29004 45.8214 8.55723 45.7326 7.86953 45.7685C8.14707 46.4842 8.48477 46.9223 8.80195 47.3113C8.42598 47.6002 8.13477 48.044 7.93105 48.6521C8.64062 48.6011 9.32012 48.4424 9.95039 48.0969C10.5068 48.4764 11.0811 48.7616 11.7127 48.7691C11.6143 48.1479 11.4078 47.6172 11.1084 47.1716C11.4475 46.7505 11.673 46.2614 11.8098 45.6722ZM2.06719 54.3851L1.53809 65.1507L1.53535 65.3056C1.53535 65.9684 1.74727 66.5783 2.08359 67.0353C2.43359 67.5131 2.91348 67.8284 3.42891 67.8757L66.3564 67.8794C66.593 67.8794 66.8391 67.819 67.0756 67.7114C67.4748 67.5301 67.8412 67.2223 68.101 66.8408C68.3238 66.516 68.4646 66.1421 68.4646 65.772C68.4646 65.6549 68.451 65.536 68.4223 65.4132C68.3895 65.2754 68.3785 65.1337 68.3867 64.9978L68.3348 54.5041C68.0449 54.7594 67.733 54.9637 67.4064 55.1122C67.0168 55.2897 66.608 55.3879 66.2074 55.3879H4.32168C3.92246 55.3879 3.51367 55.2897 3.12402 55.1122C2.75078 54.9422 2.39121 54.6929 2.06719 54.3851ZM69.8482 51.3033L69.9139 64.909C69.9727 65.1998 70 65.4888 70 65.772C70 66.72 69.6965 67.5886 69.2166 68.2892C68.7777 68.9313 68.1844 69.4373 67.5568 69.7244C67.1658 69.9019 66.757 70.0001 66.3564 70.0001H3.56699L3.32637 69.9869C2.43906 69.9038 1.61328 69.3637 1.01035 68.5423C0.391016 67.7 0 66.5613 0 65.3056L0.00820312 65.0072L0.682227 51.3128L0.679492 51.156C0.679492 50.8614 0.710937 50.5555 0.779297 50.2421L10.9908 7.63476C12.842 -0.0886746 14.9748 -0.056572 19.6561 0.0132977L21.0314 0.0227396H50.3863C53.3654 0.0227396 55.1482 0.0510651 56.5428 1.17276C57.9605 2.31144 58.7795 4.40754 59.757 8.49208L69.7293 50.1382C69.8113 50.4819 69.8496 50.8237 69.8496 51.1598L69.8482 51.3033Z" fill="#E8F6F5"/>
</g>
<defs>
<clipPath id="clip0_2270_520">
<rect width="70" height="70" fill="white"/>
</clipPath>
</defs>
</svg>
