<svg width="70" height="70" viewBox="0 0 70 70" fill="none" xmlns="http://www.w3.org/2000/svg">
<path d="M1.42165 12.1815C0.861104 12.3456 0.177511 13.1249 0.0681356 13.6991C0.02712 13.9452 -0.000223769 18.7577 0.02712 24.4042L0.0681356 34.6581L0.382589 35.1093C0.874776 35.7929 1.38064 35.9843 2.96657 36.0663L4.37478 36.1347V45.6366C4.37478 52.4452 4.41579 55.289 4.53884 55.6581C4.74392 56.3554 5.4822 57.2167 6.20681 57.5995C6.76735 57.9003 6.80837 57.9003 14.8338 57.9413C20.4392 57.9687 23.1189 57.9413 23.6111 57.8319C24.5818 57.6269 25.3201 57.0526 25.7576 56.1776L26.1131 55.453V46.7304V38.0077L26.5642 38.1171C26.7967 38.1718 30.6931 38.2128 35.2049 38.2128C43.9002 38.2128 43.5174 38.2401 44.5154 37.5976C44.7615 37.4472 44.8982 37.4745 45.6092 37.8163L46.4158 38.2128H54.7556C62.1658 38.2128 63.1502 38.1855 63.5877 37.994C64.2439 37.6933 65.0095 36.996 65.201 36.5175L65.365 36.1347L66.8963 36.0663C68.6189 35.9843 69.1111 35.8202 69.617 35.1093L69.9314 34.6581V24.0351C69.9314 13.5214 69.9314 13.412 69.6443 13.0429C69.4939 12.8378 69.1931 12.537 68.9881 12.3866L68.6189 12.0995L35.2322 12.0722C15.3396 12.0585 1.66774 12.0995 1.42165 12.1815ZM67.949 15.2304V16.3925L64.9275 16.4335C61.947 16.4745 61.906 16.4745 61.6463 16.8026C61.3045 17.2265 61.3181 17.746 61.6873 18.1425C61.9334 18.4022 62.1248 18.4569 62.781 18.4569H63.574V19.619V20.7812H54.7556H45.9373V19.619V18.4569H52.1033C56.1775 18.4569 58.3513 18.4022 58.5291 18.3065C59.1853 17.9647 59.1306 16.871 58.4334 16.5565C58.1873 16.4472 50.5994 16.4062 30.0779 16.4062H2.05056V15.244V14.0819H34.9998H67.949V15.2304ZM4.37478 26.1815V33.9062H3.21267H2.05056V26.1815V18.4569H3.21267H4.37478V26.1815ZM24.0623 19.619V20.7812H15.2439H6.42556V19.619V18.4569H15.2439H24.0623V19.619ZM43.8592 19.6464L43.9002 20.7812H34.9998H26.1131V19.7147C26.1131 19.1269 26.1541 18.5937 26.2088 18.5526C26.2498 18.4979 30.242 18.4706 35.0545 18.4843L43.8181 18.5253L43.8592 19.6464ZM67.949 26.1815V33.9062H66.7869H65.6248V26.1815V18.4569H66.7869H67.949V26.1815ZM10.6092 23.2831C10.9236 23.6522 10.9373 23.7479 10.9373 25.7167C10.9373 27.7128 10.9236 27.7812 10.5955 28.0956C10.281 28.4237 10.1853 28.4374 8.68142 28.4374C6.42556 28.4374 6.37087 28.3827 6.4529 25.3886C6.50759 22.8593 6.53493 22.8456 8.92751 22.8729C10.2263 22.9003 10.2947 22.914 10.6092 23.2831ZM24.0896 23.6659C24.158 24.6093 24.4724 25.0194 25.1424 25.0194C25.8123 25.0194 26.031 24.7187 26.1131 23.7616L26.1814 22.9003H34.9998H43.8181L43.8592 28.8476C43.8865 32.662 43.8455 34.9726 43.7635 35.287C43.49 36.1894 43.7498 36.162 34.9998 36.162C26.3728 36.162 26.5369 36.1757 26.2498 35.369C26.1677 35.123 26.1131 33.5644 26.1131 31.5136C26.1131 28.4237 26.0857 28.0272 25.867 27.7675C25.5388 27.3573 24.8279 27.3437 24.4314 27.7401L24.1306 28.0409L24.1033 41.5351C24.0759 51.5976 24.0213 55.1112 23.8982 55.3437C23.8162 55.5077 23.5154 55.7128 23.2556 55.7948C22.9275 55.8769 20.0701 55.9179 14.9431 55.8905L7.12282 55.8495L6.80837 55.5351L6.49392 55.2206L6.4529 42.8202L6.42556 30.4198L8.42165 30.4608C10.8142 30.5155 11.3338 30.3788 12.1404 29.4491C12.9197 28.5741 13.0291 28.0409 12.9744 25.2382L12.9197 22.8319H18.4705H24.0349L24.0896 23.6659ZM57.0252 25.2382C56.9705 28.0409 57.0799 28.5741 57.8592 29.4491C58.6658 30.3788 59.1853 30.5155 61.5642 30.4608L63.574 30.4198V32.7851C63.574 35.5468 63.492 35.8612 62.617 36.0937C62.2615 36.1894 59.5271 36.2304 54.3592 36.203L46.6482 36.162L46.2927 35.8339L45.9373 35.5058V29.162V22.8319H51.5154H57.0799L57.0252 25.2382ZM63.1912 23.2147C63.4783 23.5019 63.5056 23.6659 63.5467 25.3749C63.6013 27.4394 63.5603 27.7675 63.1638 28.164C62.9177 28.4101 62.699 28.4374 61.3181 28.4374C59.8142 28.4374 59.7185 28.4237 59.4041 28.0956C59.076 27.7812 59.0623 27.7128 59.0623 25.744C59.0623 22.9276 59.158 22.8046 61.4822 22.8729C62.7263 22.9003 62.9177 22.9413 63.1912 23.2147Z" fill="#2B4D4A"/>
</svg>
