<svg width="70" height="70" viewBox="0 0 70 70" fill="none" xmlns="http://www.w3.org/2000/svg">
<path d="M58.3335 55.4167V8.75H11.6668V55.4167H5.8335V61.25H64.1668V55.4167H58.3335ZM46.6668 26.25H52.5002V32.0833H46.6668V26.25ZM40.8335 32.0833H17.5002V26.25H40.8335V32.0833ZM52.5002 20.4167H46.6668V14.5833H52.5002V20.4167ZM40.8335 14.5833V20.4167H17.5002V14.5833H40.8335ZM17.5002 55.4167V37.9167H40.8335V43.225C39.521 44.1583 38.646 45.675 38.646 47.3958C38.646 50.225 40.921 52.5 43.7502 52.5C46.5793 52.5 48.8543 50.225 48.8543 47.3958C48.8543 45.675 47.9793 44.1292 46.6668 43.225V37.9167H52.5002V55.4167H17.5002Z" fill="#2B4D4A"/>
</svg>
