<svg width="70" height="70" viewBox="0 0 70 70" fill="none" xmlns="http://www.w3.org/2000/svg">
<path d="M26.2502 61.2497V64.1663H20.4168V61.2497C18.8697 61.2497 17.386 60.6351 16.292 59.5411C15.1981 58.4472 14.5835 56.9634 14.5835 55.4163V11.6663C14.5835 10.1192 15.1981 8.63551 16.292 7.54155C17.386 6.44759 18.8697 5.83301 20.4168 5.83301H49.5835C51.1306 5.83301 52.6143 6.44759 53.7083 7.54155C54.8022 8.63551 55.4168 10.1192 55.4168 11.6663V55.4163C55.4168 56.9634 54.8022 58.4472 53.7083 59.5411C52.6143 60.6351 51.1306 61.2497 49.5835 61.2497V64.1663H43.7502V61.2497H26.2502ZM20.4168 11.6663V26.2497H49.5835V11.6663H20.4168ZM20.4168 55.4163H49.5835V32.083H20.4168V55.4163ZM23.3335 34.9997H29.1668V43.7497H23.3335V34.9997ZM23.3335 17.4997H29.1668V23.333H23.3335V17.4997Z" fill="#E8F6F5"/>
</svg>
