<svg width="70" height="70" viewBox="0 0 70 70" fill="none" xmlns="http://www.w3.org/2000/svg">
<path d="M61.2502 17.5C56.4085 17.5 52.5002 21.4083 52.5002 26.25V37.9167C52.5002 39.5208 51.1877 40.8333 49.5835 40.8333V29.1667C49.5835 24.325 45.6752 20.4167 40.8335 20.4167H29.1668C24.3252 20.4167 20.4168 24.325 20.4168 29.1667H26.2502C26.2502 27.5625 27.5627 26.25 29.1668 26.25H40.8335C42.4377 26.25 43.7502 27.5625 43.7502 29.1667V32.0833H17.5002C11.0543 32.0833 5.8335 37.3042 5.8335 43.75V52.5H49.5835V46.6667C54.4252 46.6667 58.3335 42.7583 58.3335 37.9167V26.25C58.3335 24.6458 59.646 23.3333 61.2502 23.3333H64.1668V17.5H61.2502ZM43.7502 46.6667H11.6668V43.75C11.6668 40.5417 14.2918 37.9167 17.5002 37.9167H43.7502V46.6667Z" fill="#2B4D4A"/>
</svg>
