<svg width="70" height="70" viewBox="0 0 70 70" fill="none" xmlns="http://www.w3.org/2000/svg">
<path d="M17.5002 40.833H23.3335L32.0835 49.583H26.2502L17.5002 40.833ZM11.6668 11.6663H14.5835V8.74967C14.5835 7.97613 14.8908 7.23426 15.4378 6.68728C15.9847 6.1403 16.7266 5.83301 17.5002 5.83301H29.1668C29.9404 5.83301 30.6822 6.1403 31.2292 6.68728C31.7762 7.23426 32.0835 7.97613 32.0835 8.74967V11.6663H37.9168V8.74967C37.9168 7.97613 38.2241 7.23426 38.7711 6.68728C39.3181 6.1403 40.0599 5.83301 40.8335 5.83301H52.5002C53.2737 5.83301 54.0156 6.1403 54.5626 6.68728C55.1095 7.23426 55.4168 7.97613 55.4168 8.74967V11.6663H58.3335C59.8806 11.6663 61.3643 12.2809 62.4583 13.3749C63.5522 14.4688 64.1668 15.9526 64.1668 17.4997V55.4163C64.1668 56.9634 63.5522 58.4472 62.4583 59.5411C61.3643 60.6351 59.8806 61.2497 58.3335 61.2497V64.1663H49.5835V61.2497H20.4168V64.1663H11.6668V61.2497C10.1197 61.2497 8.636 60.6351 7.54204 59.5411C6.44808 58.4472 5.8335 56.9634 5.8335 55.4163V17.4997C5.8335 15.9526 6.44808 14.4688 7.54204 13.3749C8.636 12.2809 10.1197 11.6663 11.6668 11.6663ZM52.5002 20.4163C53.2737 20.4163 54.0156 20.7236 54.5626 21.2706C55.1095 21.8176 55.4168 22.5595 55.4168 23.333C55.4168 24.1066 55.1095 24.8484 54.5626 25.3954C54.0156 25.9424 53.2737 26.2497 52.5002 26.2497C51.7266 26.2497 50.9847 25.9424 50.4378 25.3954C49.8908 24.8484 49.5835 24.1066 49.5835 23.333C49.5835 22.5595 49.8908 21.8176 50.4378 21.2706C50.9847 20.7236 51.7266 20.4163 52.5002 20.4163ZM40.8335 20.4163C41.607 20.4163 42.3489 20.7236 42.8959 21.2706C43.4429 21.8176 43.7502 22.5595 43.7502 23.333C43.7502 24.1066 43.4429 24.8484 42.8959 25.3954C42.3489 25.9424 41.607 26.2497 40.8335 26.2497C40.0599 26.2497 39.3181 25.9424 38.7711 25.3954C38.2241 24.8484 37.9168 24.1066 37.9168 23.333C37.9168 22.5595 38.2241 21.8176 38.7711 21.2706C39.3181 20.7236 40.0599 20.4163 40.8335 20.4163ZM58.3335 17.4997H11.6668V29.1663H58.3335V17.4997ZM11.6668 55.4163H58.3335V34.9997H11.6668V55.4163ZM17.5002 20.4163C18.2737 20.4163 19.0156 20.7236 19.5626 21.2706C20.1095 21.8176 20.4168 22.5595 20.4168 23.333C20.4168 24.1066 20.1095 24.8484 19.5626 25.3954C19.0156 25.9424 18.2737 26.2497 17.5002 26.2497C16.7266 26.2497 15.9847 25.9424 15.4378 25.3954C14.8908 24.8484 14.5835 24.1066 14.5835 23.333C14.5835 22.5595 14.8908 21.8176 15.4378 21.2706C15.9847 20.7236 16.7266 20.4163 17.5002 20.4163ZM37.9168 40.833H43.7502L52.5002 49.583H46.6668L37.9168 40.833Z" fill="#E8F6F5"/>
</svg>
