<svg width="75" height="61" viewBox="0 0 75 61" fill="none" xmlns="http://www.w3.org/2000/svg">
<g clip-path="url(#clip0_2185_1109)">
<path d="M36.4868 59.4069H69.0491L72.583 55.3309H33.5022L36.4868 59.4069ZM16.1621 34.5893C16.0583 34.2145 15.6982 34.0003 15.3625 34.1141C15.0208 34.2279 14.8254 34.6227 14.9292 34.9976C15.509 37.1059 16.4734 38.846 17.6453 40.1913C18.927 41.6638 20.4712 42.6477 22.0398 43.0961C22.3816 43.1965 22.7356 42.9622 22.8271 42.5874C22.9187 42.2126 22.7051 41.8244 22.3633 41.724C21.0144 41.3425 19.6899 40.4858 18.5791 39.2075C17.5354 38.0295 16.6809 36.47 16.1621 34.5893ZM50.5005 11.8264H50.3296C50.3296 10.2736 49.7986 8.91493 48.7427 7.75035C47.6868 6.59246 46.4478 6.01017 45.0256 6.01017V5.81607C46.4416 5.81607 47.6807 5.23378 48.7427 4.0692C49.7986 2.90462 50.3296 1.54594 50.3296 -0.00683594H50.5005C50.5005 1.54594 51.0315 2.90462 52.0874 4.0692C53.1433 5.23378 54.3823 5.80938 55.8044 5.80938V5.99679C54.3884 5.99679 53.1494 6.57908 52.0874 7.73697C51.0315 8.90824 50.5005 10.2669 50.5005 11.8264ZM58.3862 24.2352H58.3069C58.3069 23.5258 58.0627 22.8966 57.5745 22.3679C57.0862 21.8391 56.5186 21.5714 55.8716 21.5714V21.4844C56.5186 21.4844 57.0923 21.2167 57.5745 20.6879C58.0627 20.1525 58.3069 19.53 58.3069 18.8206H58.3862C58.3862 19.53 58.6304 20.1592 59.1187 20.6879C59.6008 21.2234 60.1685 21.4911 60.8215 21.4911V21.5781C60.1746 21.5781 59.6008 21.8458 59.1187 22.3746C58.6304 22.9033 58.3862 23.5258 58.3862 24.2352ZM65.5029 15.9158H65.3564C65.3564 14.6107 64.9109 13.4729 64.0259 12.4957C63.1348 11.5185 62.0972 11.0299 60.907 11.0299V10.8693C62.0972 10.8693 63.1348 10.3807 64.0259 9.40352C64.917 8.42634 65.3564 7.28853 65.3564 5.9834H65.5029C65.5029 7.28853 65.9485 8.42634 66.8396 9.40352C67.7307 10.3807 68.7683 10.8693 69.9585 10.8693V11.0299C68.7683 11.0299 67.7307 11.5185 66.8396 12.4957C65.9424 13.4729 65.5029 14.6107 65.5029 15.9158ZM26.1047 12.0406C30.9509 12.0406 35.3455 14.1957 38.5254 17.6828C41.7053 21.1698 43.6707 25.9821 43.6707 31.303C43.6707 33.09 43.4509 34.8168 43.0359 36.4566H50.0488C50.3479 34.7901 50.5005 33.0633 50.5005 31.303C50.5005 23.9139 47.7722 17.2276 43.3533 12.3886C38.9404 7.53618 32.843 4.5444 26.1047 4.5444C19.3665 4.5444 13.269 7.54287 8.8562 12.3819C4.43726 17.2209 1.70898 23.9073 1.70898 31.2963C1.70898 38.6854 4.44336 45.3717 8.8562 50.2107C13.269 55.0498 19.3726 58.0483 26.1047 58.0483C28.4546 58.0483 30.7251 57.6868 32.8735 57.0041L31.4575 55.0699C31.3354 54.9293 31.2622 54.7352 31.2622 54.5277C31.2622 54.086 31.5857 53.7313 31.9885 53.7313H34.6985L31.6528 49.5749C29.9072 50.2107 28.0457 50.5588 26.1047 50.5588C21.2585 50.5588 16.864 48.4036 13.6841 44.9166C10.5042 41.4295 8.53882 36.6173 8.53882 31.2963C8.53882 25.9821 10.5042 21.1631 13.6841 17.6761C16.864 14.1957 21.2585 12.0406 26.1047 12.0406ZM41.5039 36.4566C41.9556 34.8235 42.1997 33.0967 42.1997 31.303C42.1997 26.4305 40.3992 22.0131 37.4817 18.8206C34.5642 15.628 30.542 13.6469 26.0986 13.6469C21.6553 13.6469 17.627 15.6213 14.7156 18.8206C11.7981 22.0198 9.99756 26.4305 9.99756 31.303C9.99756 36.1755 11.7981 40.5929 14.7156 43.7855C17.627 46.978 21.6553 48.9592 26.0986 48.9592C28.9001 48.9592 31.5308 48.1761 33.8257 46.7973L31.427 43.5044C31.1768 43.163 31.2256 42.661 31.5369 42.3866C31.6711 42.2662 31.8298 42.2126 31.9885 42.2126H34.6985L31.427 37.7417C31.1768 37.4003 31.2256 36.8984 31.5369 36.624C31.6711 36.5035 31.8298 36.4499 31.9885 36.4499H41.5039V36.4566ZM35.0769 45.954L35.1685 45.8871L35.2661 46.215L36.5601 47.982H68.9697L72.583 43.8122H33.5022L35.0769 45.954ZM26.1047 2.67706C33.313 2.67706 39.8376 5.88301 44.5618 11.0634C49.2859 16.2438 52.2095 23.3986 52.2095 31.303C52.2095 33.0633 52.063 34.7834 51.7883 36.4566H74.2798C74.6826 36.4566 75.0061 36.8114 75.0061 37.2531C75.0061 37.4874 74.9146 37.6948 74.7681 37.8421L70.9717 42.2193H74.2798C74.6826 42.2193 75.0061 42.574 75.0061 43.0158C75.0061 43.25 74.9146 43.4575 74.7681 43.6048L70.9717 47.982H74.2798C74.6826 47.982 75.0061 48.3367 75.0061 48.7784C75.0061 49.0127 74.9146 49.2202 74.7681 49.3674L70.9717 53.7447H74.2798C74.4568 53.7447 74.6399 53.8183 74.7803 53.9655C75.0671 54.2667 75.0793 54.7687 74.8047 55.0899L69.928 60.7188C69.7937 60.8995 69.5923 61.0066 69.3665 61.0066H36.145C35.9314 61.0066 35.7239 60.9062 35.5835 60.7121L34.0332 58.5904C31.5369 59.4605 28.8696 59.9357 26.1108 59.9357C18.9026 59.9357 12.3779 56.7297 7.65381 51.5493C2.92358 46.3623 0 39.2075 0 31.2963C0 23.3919 2.92358 16.2371 7.64771 11.0567C12.3657 5.87631 18.8965 2.67706 26.1047 2.67706ZM68.9697 53.738L72.583 49.5682H33.5022L36.554 53.738H68.9697ZM68.9697 42.2126L72.583 38.0429H33.5022L36.554 42.2126H68.9697Z" fill="#2B4D4A"/>
</g>
<defs>
<clipPath id="clip0_2185_1109">
<rect width="75" height="61" fill="white"/>
</clipPath>
</defs>
</svg>
