<svg width="70" height="70" viewBox="0 0 70 70" fill="none" xmlns="http://www.w3.org/2000/svg">
<path d="M23.1877 8.74967L19.046 15.1372L23.1877 21.583H23.1585L17.3543 30.6247L12.3085 27.9997L16.4502 21.5538L12.3085 15.1372L18.1418 6.09551L23.1877 8.74967ZM40.6877 8.42884L36.546 14.8747L40.6877 21.2913L40.6585 21.3205L34.8543 30.333L29.8085 27.708L33.9502 21.2913L29.8085 14.8747L35.6418 5.83301L40.6877 8.42884ZM58.3335 8.42884L54.1335 14.8747L58.3335 21.2913V21.3205L52.5002 30.333L47.396 27.708L51.5377 21.2913L47.396 14.8747L53.2293 5.83301L58.3335 8.42884ZM5.8335 64.1663V40.833C5.8335 39.2859 6.44808 37.8022 7.54204 36.7082C8.636 35.6143 10.1197 34.9997 11.6668 34.9997H58.3335C59.8806 34.9997 61.3643 35.6143 62.4583 36.7082C63.5522 37.8022 64.1668 39.2859 64.1668 40.833V64.1663H58.3335V58.333H11.6668V64.1663H5.8335ZM17.5002 40.833C16.7266 40.833 15.9847 41.1403 15.4378 41.6873C14.8908 42.2343 14.5835 42.9761 14.5835 43.7497V49.583C14.5835 50.3566 14.8908 51.0984 15.4378 51.6454C15.9847 52.1924 16.7266 52.4997 17.5002 52.4997C18.2737 52.4997 19.0156 52.1924 19.5626 51.6454C20.1095 51.0984 20.4168 50.3566 20.4168 49.583V43.7497C20.4168 42.9761 20.1095 42.2343 19.5626 41.6873C19.0156 41.1403 18.2737 40.833 17.5002 40.833ZM29.1668 40.833C28.3933 40.833 27.6514 41.1403 27.1044 41.6873C26.5575 42.2343 26.2502 42.9761 26.2502 43.7497V49.583C26.2502 50.3566 26.5575 51.0984 27.1044 51.6454C27.6514 52.1924 28.3933 52.4997 29.1668 52.4997C29.9404 52.4997 30.6822 52.1924 31.2292 51.6454C31.7762 51.0984 32.0835 50.3566 32.0835 49.583V43.7497C32.0835 42.9761 31.7762 42.2343 31.2292 41.6873C30.6822 41.1403 29.9404 40.833 29.1668 40.833ZM40.8335 40.833C40.0599 40.833 39.3181 41.1403 38.7711 41.6873C38.2241 42.2343 37.9168 42.9761 37.9168 43.7497V49.583C37.9168 50.3566 38.2241 51.0984 38.7711 51.6454C39.3181 52.1924 40.0599 52.4997 40.8335 52.4997C41.607 52.4997 42.3489 52.1924 42.8959 51.6454C43.4429 51.0984 43.7502 50.3566 43.7502 49.583V43.7497C43.7502 42.9761 43.4429 42.2343 42.8959 41.6873C42.3489 41.1403 41.607 40.833 40.8335 40.833ZM52.5002 40.833C51.7266 40.833 50.9847 41.1403 50.4378 41.6873C49.8908 42.2343 49.5835 42.9761 49.5835 43.7497V49.583C49.5835 50.3566 49.8908 51.0984 50.4378 51.6454C50.9847 52.1924 51.7266 52.4997 52.5002 52.4997C53.2737 52.4997 54.0156 52.1924 54.5626 51.6454C55.1095 51.0984 55.4168 50.3566 55.4168 49.583V43.7497C55.4168 42.9761 55.1095 42.2343 54.5626 41.6873C54.0156 41.1403 53.2737 40.833 52.5002 40.833Z" fill="#E8F6F5"/>
</svg>
