<svg width="70" height="70" viewBox="0 0 70 70" fill="none" xmlns="http://www.w3.org/2000/svg">
<path d="M17.8333 6C14.5958 6 12 8.625 12 11.8333V55.5833C12 58.8208 14.5958 61.4167 17.8333 61.4167V64.3333H23.6667V61.4167H47V64.3333H52.8333V61.4167C56.0708 61.4167 58.6667 58.8208 58.6667 55.5833V11.8333C58.6667 8.625 56.0708 6 52.8333 6H17.8333ZM17.8333 11.8333H32.4167V55.5833H17.8333V11.8333ZM38.25 11.8333H52.8333V55.5833H38.25V11.8333ZM23.6667 29.3333V38.0833H29.5V29.3333H23.6667ZM41.1667 29.3333V38.0833H47V29.3333H41.1667Z" fill="#E8F6F5"/>
</svg>
