<svg width="70" height="70" viewBox="0 0 70 70" fill="none" xmlns="http://www.w3.org/2000/svg">
<path d="M8.75 17.5H61.25V52.5H8.75V17.5ZM35 26.25C37.3206 26.25 39.5462 27.1719 41.1872 28.8128C42.8281 30.4538 43.75 32.6794 43.75 35C43.75 37.3206 42.8281 39.5462 41.1872 41.1872C39.5462 42.8281 37.3206 43.75 35 43.75C32.6794 43.75 30.4538 42.8281 28.8128 41.1872C27.1719 39.5462 26.25 37.3206 26.25 35C26.25 32.6794 27.1719 30.4538 28.8128 28.8128C30.4538 27.1719 32.6794 26.25 35 26.25ZM20.4167 23.3333C20.4167 24.8804 19.8021 26.3642 18.7081 27.4581C17.6142 28.5521 16.1304 29.1667 14.5833 29.1667V40.8333C16.1304 40.8333 17.6142 41.4479 18.7081 42.5419C19.8021 43.6358 20.4167 45.1196 20.4167 46.6667H49.5833C49.5833 45.1196 50.1979 43.6358 51.2919 42.5419C52.3858 41.4479 53.8696 40.8333 55.4167 40.8333V29.1667C53.8696 29.1667 52.3858 28.5521 51.2919 27.4581C50.1979 26.3642 49.5833 24.8804 49.5833 23.3333H20.4167Z" fill="#2B4D4A"/>
</svg>
