<svg width="59" height="59" viewBox="0 0 59 59" fill="none" xmlns="http://www.w3.org/2000/svg">
<path d="M29.1667 0C13.125 0 0 13.125 0 29.1667C0 45.2083 13.125 58.3333 29.1667 58.3333C45.2083 58.3333 58.3333 45.2083 58.3333 29.1667C58.3333 13.125 45.2083 0 29.1667 0ZM29.1667 52.5C16.3042 52.5 5.83333 42.0292 5.83333 29.1667C5.83333 16.3042 16.3042 5.83333 29.1667 5.83333C42.0292 5.83333 52.5 16.3042 52.5 29.1667C52.5 42.0292 42.0292 52.5 29.1667 52.5ZM42.5542 16.275L23.3333 35.4958L15.7792 27.9708L11.6667 32.0833L23.3333 43.75L46.6667 20.4167L42.5542 16.275Z" fill="#F2FBFB"/>
</svg>
