<svg width="70" height="70" viewBox="0 0 70 70" fill="none" xmlns="http://www.w3.org/2000/svg">
<path d="M67.0832 58.3337V64.167H46.6665V58.3337H53.8415L34.9998 13.4462C34.4457 12.0753 33.5415 10.967 32.2582 10.092C30.9748 9.21699 29.5748 8.75033 28.029 8.75033C25.9582 8.75033 24.1498 9.53783 22.6332 11.0545C21.1165 12.5712 20.4165 14.3503 20.4165 16.4503V26.2503H23.3332C29.779 26.2503 34.9998 31.4712 34.9998 37.917V64.167H23.3332C25.1123 61.717 26.2498 58.7128 26.2498 55.417C26.2498 47.367 19.7165 40.8337 11.6665 40.8337C9.59567 40.8337 7.61234 41.2712 5.83317 42.0587V26.2503H14.5832V16.4503C14.5832 14.0003 15.254 11.667 16.4207 9.68366C17.6165 7.64199 19.2207 6.00866 21.2915 4.75449C23.3332 3.52949 25.579 2.91699 28.029 2.91699C30.7707 2.91699 33.2498 3.67533 35.4665 5.16283C37.6832 6.65033 39.3748 8.66283 40.454 11.1128L60.2582 58.3337H67.0832ZM20.4165 55.417C20.4165 60.2587 16.5082 64.167 11.6665 64.167C6.82484 64.167 2.9165 60.2587 2.9165 55.417C2.9165 50.5753 6.82484 46.667 11.6665 46.667C16.5082 46.667 20.4165 50.5753 20.4165 55.417ZM14.5832 55.417C14.5832 53.8128 13.2707 52.5003 11.6665 52.5003C10.0623 52.5003 8.74984 53.8128 8.74984 55.417C8.74984 57.0212 10.0623 58.3337 11.6665 58.3337C13.2707 58.3337 14.5832 57.0212 14.5832 55.417Z" fill="#2B4D4A"/>
</svg>
