<svg width="70" height="45" viewBox="0 0 70 45" fill="none" xmlns="http://www.w3.org/2000/svg">
<path d="M35 28.9286C31.5 28.9286 28.6364 26.0679 28.6364 22.5C28.6364 18.9321 31.5 16.0714 35 16.0714C38.5 16.0714 41.3636 18.9643 41.3636 22.5C41.3636 26.0357 38.5318 28.9286 35 28.9286ZM70 45H0V38.5714H9.54545V32.1429H0V25.7143H9.54545V19.2857H0V12.8571H9.54545V6.42857H0V0H70V6.42857H60.4545V12.8571H70V19.2857H60.4545V25.7143H70V32.1429H60.4545V38.5714H70V45ZM35 35.1C36.9727 37.35 40.2818 37.9607 42.9545 36.4179C45.6273 34.875 46.7409 31.6286 45.8182 28.8C48.7136 28.2214 50.9091 25.6179 50.9091 22.5C50.9091 19.3821 48.7136 16.7786 45.8182 16.2C46.7409 13.3714 45.6273 10.125 42.9545 8.58214C40.2818 7.03929 36.9727 7.65 35 9.9C33.0273 7.65 29.7182 7.03929 27.0455 8.58214C24.3727 10.125 23.2591 13.3714 24.2136 16.2C21.2864 16.7786 19.0909 19.3821 19.0909 22.5C19.0909 25.6179 21.2864 28.2214 24.2136 28.8C23.2591 31.6286 24.3727 34.875 27.0455 36.4179C29.7182 37.9929 33.0273 37.35 35 35.1Z" fill="#E8F6F5"/>
</svg>
