<svg width="70" height="70" viewBox="0 0 70 70" fill="none" xmlns="http://www.w3.org/2000/svg">
<path d="M61.25 26.2503V20.417C61.25 15.6045 57.3125 11.667 52.5 11.667H40.8333C38.5875 11.667 36.5458 12.542 35 13.942C33.4542 12.542 31.4125 11.667 29.1667 11.667H17.5C12.6875 11.667 8.75 15.6045 8.75 20.417V26.2503C3.9375 26.2503 0 30.1878 0 35.0003V49.5837C0 54.3962 3.9375 58.3337 8.75 58.3337V64.167H14.5833V58.3337H55.4167V64.167H61.25V58.3337C66.0625 58.3337 70 54.3962 70 49.5837V35.0003C70 30.1878 66.0625 26.2503 61.25 26.2503ZM40.8333 17.5003H52.5C54.1042 17.5003 55.4167 18.8128 55.4167 20.417V28.5253C53.6375 30.1295 52.5 32.4337 52.5 35.0003V40.8337H37.9167V20.417C37.9167 18.8128 39.2292 17.5003 40.8333 17.5003ZM14.5833 20.417C14.5833 18.8128 15.8958 17.5003 17.5 17.5003H29.1667C30.7708 17.5003 32.0833 18.8128 32.0833 20.417V40.8337H17.5V35.0003C17.5 32.4337 16.3625 30.1295 14.5833 28.5253V20.417ZM64.1667 49.5837C64.1667 51.1878 62.8542 52.5003 61.25 52.5003H8.75C7.14583 52.5003 5.83333 51.1878 5.83333 49.5837V35.0003C5.83333 33.3962 7.14583 32.0837 8.75 32.0837C10.3542 32.0837 11.6667 33.3962 11.6667 35.0003V46.667H58.3333V35.0003C58.3333 33.3962 59.6458 32.0837 61.25 32.0837C62.8542 32.0837 64.1667 33.3962 64.1667 35.0003V49.5837Z" fill="#2B4D4A"/>
</svg>
