<svg width="70" height="70" viewBox="0 0 70 70" fill="none" xmlns="http://www.w3.org/2000/svg">
<path d="M55.5833 23.5833V17.75C55.5833 12.9375 51.6458 9 46.8333 9H23.5C18.6875 9 14.75 12.9375 14.75 17.75V23.5833C9.9375 23.5833 6 27.5208 6 32.3333V46.9167C6 51.7292 9.9375 55.6667 14.75 55.6667V61.5H20.5833V55.6667H49.75V61.5H55.5833V55.6667C60.3958 55.6667 64.3333 51.7292 64.3333 46.9167V32.3333C64.3333 27.5208 60.3958 23.5833 55.5833 23.5833ZM20.5833 17.75C20.5833 16.1458 21.8958 14.8333 23.5 14.8333H46.8333C48.4375 14.8333 49.75 16.1458 49.75 17.75V25.8583C47.9708 27.4625 46.8333 29.7667 46.8333 32.3333V38.1667H23.5V32.3333C23.5 29.7667 22.3625 27.4625 20.5833 25.8583V17.75ZM58.5 46.9167C58.5 48.5208 57.1875 49.8333 55.5833 49.8333H14.75C13.1458 49.8333 11.8333 48.5208 11.8333 46.9167V32.3333C11.8333 30.7292 13.1458 29.4167 14.75 29.4167C16.3542 29.4167 17.6667 30.7292 17.6667 32.3333V44H52.6667V32.3333C52.6667 30.7292 53.9792 29.4167 55.5833 29.4167C57.1875 29.4167 58.5 30.7292 58.5 32.3333V46.9167Z" fill="#2B4D4A"/>
</svg>
