<svg width="70" height="70" viewBox="0 0 70 70" fill="none" xmlns="http://www.w3.org/2000/svg">
<path d="M29.1667 29.1663V34.9997H23.3333V29.1663H29.1667ZM46.6667 34.9997V29.1663H40.8333V34.9997H46.6667ZM61.25 40.833V64.1663H8.75V40.833H11.6667V29.1663C11.6667 16.2747 22.1083 5.83301 35 5.83301C47.8917 5.83301 58.3333 16.2747 58.3333 29.1663V40.833H61.25ZM20.4167 46.6663H14.5833V58.333H20.4167V46.6663ZM32.0833 46.6663H26.25V58.333H32.0833V46.6663ZM32.0833 11.8997C23.8 13.2997 17.5 20.5038 17.5 29.1663V40.833H32.0833V11.8997ZM37.9167 40.833H52.5V29.1663C52.5 20.5038 46.2 13.2997 37.9167 11.8997V40.833ZM43.75 46.6663H37.9167V58.333H43.75V46.6663ZM55.4167 46.6663H49.5833V58.333H55.4167V46.6663Z" fill="#2B4D4A"/>
</svg>
