<svg width="70" height="70" viewBox="0 0 70 70" fill="none" xmlns="http://www.w3.org/2000/svg">
<path d="M11.6668 14.583C10.1197 14.583 8.636 15.1976 7.54204 16.2916C6.44808 17.3855 5.8335 18.8692 5.8335 20.4163V49.583C5.8335 51.1301 6.44808 52.6138 7.54204 53.7078C8.636 54.8018 10.1197 55.4163 11.6668 55.4163H58.3335C59.8806 55.4163 61.3643 54.8018 62.4583 53.7078C63.5522 52.6138 64.1668 51.1301 64.1668 49.583V20.4163C64.1668 18.8692 63.5522 17.3855 62.4583 16.2916C61.3643 15.1976 59.8806 14.583 58.3335 14.583H11.6668ZM11.6668 20.4163H46.6668V49.583H11.6668V20.4163ZM55.4168 20.4163C56.1904 20.4163 56.9322 20.7236 57.4792 21.2706C58.0262 21.8176 58.3335 22.5595 58.3335 23.333C58.3335 24.1066 58.0262 24.8484 57.4792 25.3954C56.9322 25.9424 56.1904 26.2497 55.4168 26.2497C54.6433 26.2497 53.9014 25.9424 53.3544 25.3954C52.8074 24.8484 52.5002 24.1066 52.5002 23.333C52.5002 22.5595 52.8074 21.8176 53.3544 21.2706C53.9014 20.7236 54.6433 20.4163 55.4168 20.4163ZM37.9168 26.2497V43.7497H43.7502V26.2497H37.9168ZM55.4168 32.083C56.1904 32.083 56.9322 32.3903 57.4792 32.9373C58.0262 33.4843 58.3335 34.2261 58.3335 34.9997C58.3335 35.7732 58.0262 36.5151 57.4792 37.0621C56.9322 37.609 56.1904 37.9163 55.4168 37.9163C54.6433 37.9163 53.9014 37.609 53.3544 37.0621C52.8074 36.5151 52.5002 35.7732 52.5002 34.9997C52.5002 34.2261 52.8074 33.4843 53.3544 32.9373C53.9014 32.3903 54.6433 32.083 55.4168 32.083Z" fill="#2B4D4A"/>
</svg>
