<svg width="70" height="70" viewBox="0 0 70 70" fill="none" xmlns="http://www.w3.org/2000/svg">
<path d="M24.3541 8.74993C27.7957 8.2541 31.4416 12.0166 32.4916 17.2083C33.5416 22.3708 31.6457 26.9791 28.2041 27.5041C24.7916 28.0291 21.1166 24.2666 20.0374 19.0749C18.9582 13.9124 20.9124 9.3041 24.3541 8.74993ZM45.2082 8.74993C48.6791 9.3041 50.6041 13.9124 49.5832 19.0749C48.4749 24.2666 44.8291 28.0291 41.3874 27.5041C37.9166 26.9791 36.0207 22.3708 37.0999 17.2083C38.1499 12.0166 41.7957 8.2541 45.2082 8.74993ZM8.74989 22.1666C12.0749 20.7374 16.5957 23.3333 18.9582 27.8541C21.1749 32.4624 20.4166 37.3041 17.1207 38.7333C13.8249 40.1624 9.33322 37.5958 7.02906 33.0166C4.72489 28.4374 5.54156 23.5666 8.74989 22.1666ZM61.2499 22.1666C64.4582 23.5666 65.2749 28.4374 62.9707 33.0166C60.6666 37.5958 56.1749 40.1624 52.8791 38.7333C49.5832 37.3041 48.8249 32.4624 51.0416 27.8541C53.4041 23.3333 57.9249 20.7374 61.2499 22.1666ZM56.3791 53.6083C56.4957 56.3499 54.3957 59.3833 51.8874 60.5208C46.6666 62.9124 40.4832 57.9541 34.6791 57.9541C28.8749 57.9541 22.6332 63.1166 17.4999 60.5208C14.5832 59.0916 12.5707 55.2999 12.9499 52.1499C13.4749 47.8041 18.6957 45.4708 21.7874 42.2916C25.8999 38.1791 28.8166 30.4499 34.6791 30.4499C40.5124 30.4499 43.6041 38.0624 47.5416 42.2916C50.7791 45.8499 56.1749 48.8541 56.3791 53.6083Z" fill="#2B4D4A"/>
</svg>
